<?xml version="1.0" encoding="utf-8"?>
<!-- Generator: Adobe Illustrator 16.0.0, SVG Export Plug-In . SVG Version: 6.00 Build 0)  -->
<!DOCTYPE svg PUBLIC "-//W3C//DTD SVG 1.1//EN" "http://www.w3.org/Graphics/SVG/1.1/DTD/svg11.dtd">
<svg version="1.1" id="圖層_1" xmlns="http://www.w3.org/2000/svg" xmlns:xlink="http://www.w3.org/1999/xlink" x="0px" y="0px"
	 width="250px" height="250px" viewBox="387 387 250 250" enable-background="new 387 387 250 250" xml:space="preserve">
<title>Blocks</title>
<g transform="translate(80 20)">
	<path fill="none" stroke="#000000" stroke-width="2" stroke-linejoin="round" d="M325.4,458.8h49.8c4.583,0,8.3,3.716,8.3,8.3
		V516.9c0,4.583-3.717,8.3-8.3,8.3h-49.8c-4.584,0-8.3-3.717-8.3-8.3V467.1C317.1,462.516,320.816,458.8,325.4,458.8z"/>
	<path fill="none" stroke="#000000" stroke-width="2" stroke-linejoin="round" d="M408.4,458.8H458.2c4.583,0,8.3,3.716,8.3,8.3
		V516.9c0,4.583-3.717,8.3-8.3,8.3H408.4c-4.584,0-8.3-3.717-8.3-8.3V467.1C400.1,462.516,403.816,458.8,408.4,458.8z"/>
	<path fill="none" stroke="#000000" stroke-width="2" stroke-linejoin="round" d="M491.4,458.8H541.2c4.584,0,8.3,3.716,8.3,8.3
		V516.9c0,4.583-3.716,8.3-8.3,8.3H491.4c-4.584,0-8.3-3.717-8.3-8.3V467.1C483.1,462.516,486.816,458.8,491.4,458.8z"/>
</g>
</svg>
